<svg version="1.1" id="Layer_1" xmlns="http://www.w3.org/2000/svg" xmlns:xlink="http://www.w3.org/1999/xlink" x="0px" y="0px"
	 width="100%" viewBox="0 0 250 150" enable-background="new 0 0 250 150" xml:space="preserve">
<path fill="#FFFFFF" opacity="1.000000" stroke="none" 
	d="
M1.000000,103.000000 
	C1.000000,85.312439 1.000000,67.624878 1.215186,49.392334 
	C1.699549,48.687492 1.907450,48.469254 2.080309,48.081635 
	C2.106540,47.970634 1.928506,47.828014 2.396141,47.904488 
	C83.250069,47.988091 163.636368,47.993923 244.022659,48.009899 
	C246.015274,48.010296 248.007874,48.122875 250.118530,48.372963 
	C250.438293,48.800663 250.692764,48.946404 251.000000,49.000000 
	C251.000000,66.687561 251.000000,84.375122 250.789520,102.600624 
	C250.316376,103.295380 250.122574,103.513420 249.741547,103.870384 
	C249.319962,104.014748 249.154465,104.081429 248.526520,104.071625 
	C168.012985,103.987556 87.961899,103.981102 7.910812,103.965797 
	C5.917062,103.965416 3.923330,103.867317 1.831946,103.621078 
	C1.548772,103.183167 1.304005,103.040710 1.000000,103.000000 
z"/>
<path fill="#21468B" opacity="1.000000" stroke="none" 
	d="
M248.988983,104.148102 
	C249.154465,104.081429 249.319962,104.014748 249.984619,103.958496 
	C250.655884,103.979286 250.827942,103.989647 251.000000,104.000000 
	C251.000000,119.646599 251.000000,135.293198 251.000000,150.940155 
	C167.666641,150.940491 84.333313,150.940491 1.000000,150.940491 
	C1.000000,136.233093 1.000000,121.585205 1.468657,106.468658 
	C25.728764,106.000000 49.520210,106.000000 73.311661,106.000000 
	C130.045105,106.000000 186.778580,106.017265 243.511856,105.922127 
	C245.338547,105.919067 247.163315,104.765388 248.988983,104.148102 
z"/>
<path fill="#AE1C28" opacity="1.000000" stroke="none" 
	d="
M1.000000,46.000000 
	C1.000000,31.019320 1.000000,16.038639 1.000007,1.058832 
	C84.333351,1.059707 167.666687,1.059707 251.000000,1.059707 
	C251.000000,15.767171 251.000000,30.414927 250.531342,45.531342 
	C167.041794,46.000000 84.020897,46.000000 1.000000,46.000000 
z"/>
<path fill="#A90D1A" opacity="1.000000" stroke="none" 
	d="
M1.000000,46.250000 
	C84.020897,46.000000 167.041794,46.000000 250.531342,46.000000 
	C251.000000,46.444447 251.000000,46.888889 250.743774,47.677868 
	C250.325195,48.075974 250.162842,48.129551 250.000473,48.183136 
	C248.007874,48.122875 246.015274,48.010296 244.022659,48.009899 
	C163.636368,47.993923 83.250069,47.988091 2.297281,47.712051 
	C1.534424,47.217548 1.290829,47.069836 1.000000,47.000000 
	C1.000000,47.000000 1.000000,46.500000 1.000000,46.250000 
z"/>
<path fill="#143B84" opacity="1.000000" stroke="none" 
	d="
M248.526520,104.071625 
	C247.163315,104.765388 245.338547,105.919067 243.511856,105.922127 
	C186.778580,106.017265 130.045105,106.000000 73.311661,106.000000 
	C49.520210,106.000000 25.728764,106.000000 1.468657,106.000000 
	C1.000000,106.000000 1.000000,105.500000 1.210259,105.164856 
	C1.691752,104.676552 1.901308,104.462891 2.067857,104.079720 
	C2.086526,103.970703 1.929589,103.814796 1.929589,103.814789 
	C3.923330,103.867317 5.917062,103.965416 7.910812,103.965797 
	C87.961899,103.981102 168.012985,103.987556 248.526520,104.071625 
z"/>
<path fill="#AE1C28" opacity="1.000000" stroke="none" 
	d="
M1.000000,47.250000 
	C1.290829,47.069836 1.534424,47.217548 1.829646,47.635578 
	C1.928506,47.828014 2.106540,47.970634 1.823813,47.995049 
	C1.360723,48.012974 1.180362,48.006489 1.000000,48.000000 
	C1.000000,48.000000 1.000000,47.500000 1.000000,47.250000 
z"/>
<path fill="#F8EBEC" opacity="1.000000" stroke="none" 
	d="
M1.000000,48.250000 
	C1.180362,48.006489 1.360723,48.012974 1.797581,48.106049 
	C1.907450,48.469254 1.699549,48.687492 1.215186,48.923676 
	C1.000000,49.000000 1.000000,48.500000 1.000000,48.250000 
z"/>
<path fill="#F8EBEC" opacity="1.000000" stroke="none" 
	d="
M250.118530,48.372959 
	C250.162842,48.129551 250.325195,48.075974 250.743774,48.011200 
	C251.000000,48.000000 251.000000,48.500000 251.000000,48.750000 
	C250.692764,48.946404 250.438293,48.800663 250.118530,48.372959 
z"/>
<path fill="#E7EBF2" opacity="1.000000" stroke="none" 
	d="
M1.000000,103.250000 
	C1.304005,103.040710 1.548772,103.183167 1.831946,103.621086 
	C1.929589,103.814796 2.086526,103.970703 1.811511,103.999451 
	C1.357663,104.018806 1.178832,104.009407 1.000000,104.000000 
	C1.000000,104.000000 1.000000,103.500000 1.000000,103.250000 
z"/>
<path fill="#E7EBF2" opacity="1.000000" stroke="none" 
	d="
M251.000000,103.750000 
	C250.827942,103.989647 250.655884,103.979286 250.240723,103.880814 
	C250.122574,103.513420 250.316376,103.295380 250.789520,103.069283 
	C251.000000,103.000000 251.000000,103.500000 251.000000,103.750000 
z"/>
<path fill="#21468B" opacity="1.000000" stroke="none" 
	d="
M1.000000,104.250000 
	C1.178832,104.009407 1.357663,104.018806 1.792841,104.108475 
	C1.901308,104.462891 1.691752,104.676552 1.210259,104.914856 
	C1.000000,105.000000 1.000000,104.500000 1.000000,104.250000 
z"/>
</svg>