<svg version="1.1" id="Layer_1" xmlns="http://www.w3.org/2000/svg" xmlns:xlink="http://www.w3.org/1999/xlink" x="0px" y="0px"
	 width="100%" viewBox="0 0 250 150" enable-background="new 0 0 250 150" xml:space="preserve">
<path fill="#C8112F" opacity="1.000000" stroke="none" 
	d="
M111.000000,1.000000 
	C120.687561,1.000000 130.375122,1.000000 140.521027,1.261256 
	C140.921555,1.686944 140.863724,1.851376 140.448029,2.163384 
	C139.731537,3.180694 139.063110,4.049307 139.059967,4.920328 
	C138.996445,22.469967 138.970947,40.020157 139.095993,57.569111 
	C139.104080,58.704140 140.390259,59.830063 141.048706,60.972946 
	C141.015533,60.985668 141.038498,60.918407 141.159439,61.299805 
	C143.103683,62.121220 144.926163,62.941143 146.750397,62.945000 
	C181.163544,63.017773 215.576920,62.994011 249.994690,62.994766 
	C249.999146,62.999142 250.005737,63.005741 250.004395,63.474030 
	C250.002228,72.294678 250.001419,80.647034 249.531891,88.999168 
	C215.010269,88.998924 180.957245,88.963737 146.904816,89.090302 
	C144.957489,89.097534 143.015091,90.426163 141.066864,91.101761 
	C141.063324,91.063713 141.139435,91.070549 140.749908,91.171951 
	C139.907135,92.583168 139.066315,93.890953 139.059387,95.203140 
	C138.970276,112.090637 138.958252,128.979050 139.078018,145.866180 
	C139.087784,147.242874 140.203369,148.611725 140.891754,150.230896 
	C140.985580,150.651718 140.992783,150.825851 141.000000,151.000000 
	C131.312439,151.000000 121.624878,151.000000 111.520432,150.737900 
	C111.165665,150.308884 111.227783,150.141953 111.636581,149.814758 
	C112.313988,148.939484 112.931114,148.225479 112.933517,147.509399 
	C112.993011,129.817871 113.025482,112.125847 112.904716,94.434998 
	C112.896957,93.297379 111.615875,92.168449 110.959373,91.023605 
	C110.991631,91.011726 110.964333,91.074821 110.848862,90.691772 
	C108.739304,89.872101 106.746071,89.059349 104.751007,89.054825 
	C70.500648,88.977119 36.250053,88.999207 1.999438,88.530777 
	C1.997665,79.710022 1.995965,71.357880 1.997561,63.002445 
	C2.000857,62.999149 2.009704,62.990387 2.477344,62.994068 
	C36.972549,62.998924 71.000237,63.033997 105.027374,62.915016 
	C107.017509,62.908058 109.003281,61.655773 110.995850,60.991837 
	C111.000610,61.000652 110.983032,60.991108 111.358055,60.858208 
	C112.154594,59.552441 112.937836,58.381245 112.943275,57.206448 
	C113.022743,40.051830 113.033699,22.896511 112.924973,5.742220 
	C112.917091,4.499694 111.858383,3.263828 111.194824,1.774659 
	C111.067589,1.349635 111.033791,1.174818 111.000000,1.000000 
z"/>
<path fill="#FDFCFC" opacity="1.000000" stroke="none" 
	d="
M110.545891,1.000000 
	C111.033791,1.174818 111.067589,1.349635 111.113190,2.235328 
	C111.077675,22.294504 111.030350,41.642807 110.983032,60.991108 
	C110.983032,60.991108 111.000610,61.000652 110.530128,61.041611 
	C104.084610,61.088978 98.109566,61.090595 92.134537,61.102608 
	C62.098000,61.162991 32.061470,61.226086 1.775725,61.191193 
	C1.351010,61.062775 1.175505,61.031387 1.000000,61.000000 
	C1.000000,57.969406 1.000000,54.938812 1.468593,51.445663 
	C18.925655,50.983105 35.914124,50.983105 52.902592,50.983105 
	C52.991550,50.596382 53.080505,50.209663 53.169464,49.822941 
	C51.808762,49.063721 50.448063,48.304504 48.915985,47.342743 
	C48.567749,47.142437 48.390884,47.144672 47.970737,47.054089 
	C47.049046,46.462414 46.370640,45.963558 45.632927,45.361408 
	C45.573616,45.258118 45.335644,45.268841 45.203300,45.112068 
	C44.702091,44.785168 44.333225,44.615036 43.855057,44.296955 
	C43.745750,44.149002 43.377853,44.148170 43.189354,43.952087 
	C42.211845,43.322746 41.422832,42.889488 40.585617,42.385445 
	C40.537415,42.314667 40.366173,42.311260 40.212547,42.139397 
	C39.804276,41.772308 39.516544,41.677372 39.184753,41.732849 
	C39.173782,41.782978 39.266094,41.738125 39.093884,41.480782 
	C37.843105,40.634636 36.764538,40.045830 35.627762,39.358730 
	C35.569553,39.260441 35.341274,39.269638 35.191299,39.104717 
	C34.795033,38.748878 34.516228,38.660366 34.190697,38.727428 
	C34.176472,38.780590 34.272812,38.727371 34.087204,38.468857 
	C32.600319,37.531609 31.299034,36.852871 29.674553,35.990150 
	C28.622736,35.527195 27.831306,35.351753 27.174984,34.953602 
	C18.438940,29.653946 9.721830,24.323084 1.000000,19.000000 
	C1.000000,17.285641 1.000000,15.571283 1.362373,13.422897 
	C7.518892,16.529978 13.250417,20.179153 19.124218,23.582796 
	C25.408649,27.224377 31.914223,30.487499 38.162933,34.186657 
	C44.539364,37.961422 50.720943,42.065323 57.162415,46.257011 
	C58.017799,46.848751 58.698601,47.208607 59.418110,47.613365 
	C59.456821,47.658260 59.573521,47.679214 59.832565,47.902107 
	C67.156303,53.454014 75.082497,49.955845 82.807289,50.022179 
	C80.697334,48.839268 78.587379,47.656357 76.434387,46.499557 
	C76.391342,46.525661 76.477104,46.578407 76.254379,46.316250 
	C75.604797,45.880318 75.177933,45.706539 74.560638,45.288086 
	C71.857422,43.596588 69.320038,42.190647 66.835899,40.696201 
	C52.533493,32.091923 38.213963,23.515451 23.961847,14.828474 
	C16.575718,10.326465 9.316534,5.616188 2.000000,1.000000 
	C11.354229,1.000000 20.708458,1.000000 30.662132,1.317734 
	C49.438541,12.449474 67.615509,23.263481 85.955971,34.338554 
	C86.676285,34.854580 87.233093,35.109543 87.796326,35.317162 
	C87.802742,35.269817 87.711220,35.297287 87.881363,35.552742 
	C89.121902,36.387253 90.192291,36.966312 91.332520,37.667637 
	C91.402359,37.789906 91.682808,37.764347 91.829498,37.922291 
	C92.216270,38.261833 92.486641,38.345325 92.806580,38.274826 
	C92.825859,38.218941 92.723434,38.277996 92.873611,38.521347 
	C93.538368,39.013145 94.052940,39.261593 94.617844,39.468452 
	C94.668167,39.426868 94.629829,39.551682 94.790276,39.746330 
	C95.408806,40.148319 95.866890,40.355652 96.384293,40.655190 
	C96.443611,40.747398 96.662506,40.734676 96.920441,40.970016 
	C98.341560,41.834995 99.504738,42.464634 101.000000,43.274033 
	C101.000000,28.642014 101.000000,14.821007 101.000000,1.000000 
	C104.030594,1.000000 107.061188,1.000000 110.545891,1.000000 
z"/>
<path fill="#FDFBFC" opacity="1.000000" stroke="none" 
	d="
M141.454102,151.000000 
	C140.992783,150.825851 140.985580,150.651718 140.974609,149.769714 
	C141.027039,129.731415 141.083237,110.400986 141.139435,91.070549 
	C141.139435,91.070549 141.063324,91.063713 141.528320,91.049377 
	C146.326263,91.021736 150.659164,91.003883 154.992111,90.995857 
	C186.653336,90.937202 218.314575,90.880531 250.224258,90.911407 
	C250.648483,90.999725 250.824234,90.999863 251.000000,91.000000 
	C251.000000,94.030594 251.000000,97.061188 250.531403,100.554657 
	C232.789597,101.017532 215.516373,101.017532 198.243164,101.017532 
	C198.202118,101.315819 198.161072,101.614105 198.120026,101.912384 
	C199.700623,102.761185 201.281235,103.609985 203.006897,104.653465 
	C203.151932,104.848145 203.633499,104.909958 203.816528,105.096771 
	C204.757477,105.704811 205.515427,106.126030 206.340363,106.662804 
	C206.407364,106.778366 206.673569,106.755913 206.821472,106.915321 
	C207.210541,107.258888 207.482712,107.345207 207.800781,107.280945 
	C207.815643,107.228210 207.718307,107.278526 207.865692,107.518524 
	C208.676788,108.085037 209.340500,108.411560 210.274628,108.963821 
	C221.181961,115.593216 231.802795,122.023796 242.466660,128.382202 
	C245.242157,130.037109 248.151917,131.466843 251.000000,133.000000 
	C251.000000,134.714355 251.000000,136.428711 250.648407,138.551270 
	C239.740265,132.878967 229.123322,126.900261 218.646835,120.684799 
	C210.671097,115.952972 202.873688,110.920540 194.808731,105.791962 
	C193.929291,105.183472 193.238083,104.804871 192.518982,104.415031 
	C192.491089,104.403801 192.439331,104.373215 192.189697,104.156845 
	C189.604324,103.247086 187.268585,102.553696 184.483627,101.896759 
	C181.019852,101.995583 178.005295,102.057938 174.605225,102.053169 
	C172.338699,101.614357 170.457672,101.242676 168.576645,100.870995 
	C168.499954,101.131981 168.423279,101.392975 168.346588,101.653961 
	C170.730652,102.955521 173.114716,104.257080 175.567688,105.516411 
	C175.636612,105.474182 175.523163,105.359016 175.749130,105.658447 
	C176.445648,106.121468 176.916199,106.285057 177.530792,106.712463 
	C192.640106,115.982086 207.631531,124.944839 222.561020,134.009552 
	C231.756210,139.592590 240.856888,145.331223 250.000000,151.000000 
	C240.645767,151.000000 231.291550,151.000000 221.309692,150.677597 
	C216.528412,147.847580 212.421646,145.257904 208.210617,142.850662 
	C201.052200,138.758545 193.724609,134.953964 186.655899,130.715408 
	C176.016586,124.335861 165.539093,117.686470 154.786301,110.939224 
	C154.055786,110.477020 153.531784,110.227386 152.758514,109.654388 
	C152.008087,110.491684 151.080872,111.648773 151.071136,112.813522 
	C150.964844,125.541656 151.001923,138.270996 151.000000,151.000000 
	C147.969406,151.000000 144.938812,151.000000 141.454102,151.000000 
z"/>
<path fill="#FDFBFB" opacity="1.000000" stroke="none" 
	d="
M111.289909,149.975037 
	C111.227783,150.141953 111.165665,150.308884 111.051773,150.737900 
	C107.969406,151.000000 104.938812,151.000000 101.446159,150.531403 
	C100.987984,137.416779 101.023613,124.770439 100.897331,112.125725 
	C100.891327,111.524849 102.830353,107.847847 98.759422,110.059349 
	C97.984711,110.472252 97.504639,110.827133 96.691284,111.252800 
	C87.126541,116.869713 77.872322,122.378380 68.669167,127.971092 
	C56.092430,135.613907 43.554543,143.320663 31.000000,151.000000 
	C27.969406,151.000000 24.938814,151.000000 21.684635,150.751129 
	C27.610167,146.689240 33.729935,142.827866 39.915440,139.074829 
	C48.678013,133.758179 57.485607,128.515640 66.280273,123.251968 
	C76.938293,116.873062 87.602882,110.505157 98.626770,104.042923 
	C100.010651,103.579948 101.032379,103.206551 102.054115,102.833153 
	C101.592003,102.082008 101.129890,101.330872 100.667770,100.579727 
	C94.784561,101.080185 88.901344,101.580635 82.682098,102.156357 
	C65.343025,112.442177 48.313560,122.609093 31.347069,132.880035 
	C21.512392,138.833603 11.778983,144.954437 2.000003,151.000000 
	C1.666668,149.055420 1.125020,147.119415 1.044625,145.164444 
	C0.890991,141.428482 1.000000,137.681702 1.358382,133.501938 
	C17.183918,123.720871 32.651073,114.377289 48.151978,105.037247 
	C48.185730,105.040779 48.228168,104.987801 48.502556,104.961769 
	C48.899635,104.798958 49.022327,104.662178 49.400528,104.428650 
	C50.430061,103.839882 51.204086,103.347847 52.363899,102.774338 
	C53.125347,102.365944 53.508343,102.046562 53.864468,101.699608 
	C53.897320,101.667603 53.759071,101.459969 53.544556,101.000000 
	C36.135044,101.000000 18.567522,101.000000 1.000000,101.000000 
	C1.000000,97.969406 1.000000,94.938812 1.263572,91.453522 
	C1.692755,90.940094 1.858365,90.881363 2.485811,90.897476 
	C38.953209,91.006493 74.958771,91.040657 110.964333,91.074821 
	C110.964333,91.074821 110.991631,91.011726 111.028137,91.485489 
	C111.139732,111.297852 111.214821,130.636444 111.289909,149.975037 
z"/>
<path fill="#FDFBFC" opacity="1.000000" stroke="none" 
	d="
M140.805878,2.015808 
	C140.863724,1.851376 140.921555,1.686944 140.989685,1.261256 
	C144.030594,1.000000 147.061188,1.000000 150.553238,1.468610 
	C151.010468,4.583077 151.002991,7.228935 151.002594,9.874793 
	C151.001083,19.962208 150.970779,30.049864 151.049652,40.136662 
	C151.057571,41.150681 149.878021,44.185471 153.392487,42.021507 
	C154.117188,41.621944 154.558044,41.265556 155.340363,40.853584 
	C170.336426,32.003334 185.019058,23.254921 199.633621,14.394244 
	C206.820755,10.036739 213.881866,5.471328 221.000000,0.999999 
	C224.030594,1.000000 227.061188,1.000000 230.368500,1.292402 
	C220.961319,7.402120 211.265396,13.199571 201.596268,19.041309 
	C186.385559,28.231037 171.192856,37.450584 155.630768,46.765118 
	C153.775375,47.864067 152.281769,48.855396 150.788162,49.846725 
	C154.672470,50.984322 158.076401,51.209896 161.435059,50.916740 
	C164.405838,50.657440 167.326202,49.820503 170.215118,49.210091 
	C170.161407,49.181587 170.211380,49.292450 170.433197,49.247963 
	C170.655014,49.203480 170.981644,48.890350 171.321136,48.815063 
	C176.657562,45.705441 181.687775,42.724178 186.641464,39.620785 
	C190.974716,36.906086 195.129257,33.897160 199.528259,31.298388 
	C206.666031,27.081659 213.967880,23.143688 221.145386,18.992849 
	C226.240860,16.046089 231.284882,13.005441 236.279495,9.890643 
	C240.903000,7.007266 245.430313,3.969678 250.000000,1.000000 
	C250.333344,2.944576 250.874985,4.880589 250.955368,6.835568 
	C251.108994,10.571535 251.000000,14.318300 250.669250,18.522810 
	C249.444214,19.595222 248.549911,20.205410 247.324036,20.895916 
	C236.000824,27.668360 225.009186,34.360485 213.735260,41.066002 
	C212.841904,41.509594 212.230804,41.939796 211.557037,42.378777 
	C211.494354,42.387562 211.419586,42.489700 211.158142,42.582893 
	C210.135239,43.185333 209.373779,43.694576 208.446350,44.198219 
	C208.280350,44.192616 208.092957,44.466900 207.881439,44.520000 
	C207.322998,44.826584 206.976059,45.080067 206.545410,45.339100 
	C206.461685,45.344650 206.373962,45.487686 206.120499,45.585052 
	C205.118301,46.179134 204.369583,46.675846 203.653275,47.185474 
	C203.685684,47.198391 203.615677,47.174393 203.253632,47.288414 
	C201.543671,48.285587 200.195770,49.168739 198.847870,50.051891 
	C199.029770,50.367928 199.211655,50.683964 199.393555,51.000000 
	C216.595703,51.000000 233.797852,51.000000 251.000000,51.000000 
	C251.000000,54.030594 251.000000,57.061188 250.737045,60.593170 
	C250.308136,61.159245 250.142181,61.223927 249.515472,61.207035 
	C243.412796,61.117737 237.770874,61.112995 232.128952,61.101799 
	C201.765472,61.041550 171.401978,60.979706 141.038498,60.918411 
	C141.038498,60.918407 141.015533,60.985668 141.006195,60.508575 
	C140.933182,40.692928 140.869522,21.354368 140.805878,2.015808 
z"/>
<path fill="#04236A" opacity="1.000000" stroke="none" 
	d="
M153.108627,42.064682 
	C149.878021,44.185471 151.057571,41.150681 151.049652,40.136662 
	C150.970779,30.049864 151.001083,19.962208 151.002594,9.874793 
	C151.002991,7.228935 151.010468,4.583077 151.007355,1.468610 
	C174.020889,1.000000 197.041794,1.000000 220.531342,0.999999 
	C213.881866,5.471328 206.820755,10.036739 199.633621,14.394244 
	C185.019058,23.254921 170.336426,32.003334 155.085815,40.565804 
	C153.993790,37.838837 153.112732,35.350658 153.069901,32.848145 
	C152.903030,23.095917 153.001831,13.339144 153.001831,3.584062 
	C152.038773,15.524663 152.015808,27.452763 152.084900,39.380333 
	C152.090103,40.277061 152.751999,41.169987 153.108627,42.064682 
z"/>
<path fill="#04236A" opacity="1.000000" stroke="none" 
	d="
M31.468658,151.000000 
	C43.554543,143.320663 56.092430,135.613907 68.669167,127.971092 
	C77.872322,122.378380 87.126541,116.869713 96.953880,111.526413 
	C98.032745,113.722221 98.905571,115.709824 98.933212,117.709114 
	C99.074837,127.950836 98.998734,138.195572 98.998734,148.439240 
	C99.982765,136.700699 100.007065,124.972450 99.942345,113.244690 
	C99.936371,112.161972 99.363625,111.082375 99.054054,110.001328 
	C102.830353,107.847847 100.891327,111.524849 100.897331,112.125725 
	C101.023613,124.770439 100.987984,137.416779 100.992050,150.531403 
	C77.979103,151.000000 54.958210,151.000000 31.468658,151.000000 
z"/>
<path fill="#032269" opacity="1.000000" stroke="none" 
	d="
M154.992798,111.151802 
	C165.539093,117.686470 176.016586,124.335861 186.655899,130.715408 
	C193.724609,134.953964 201.052200,138.758545 208.210617,142.850662 
	C212.421646,145.257904 216.528412,147.847580 220.841034,150.677597 
	C197.979111,151.000000 174.958206,151.000000 151.468658,151.000000 
	C151.001923,138.270996 150.964844,125.541656 151.071136,112.813522 
	C151.080872,111.648773 152.008087,110.491684 152.492676,109.975342 
	C152.476120,123.273079 152.476120,135.926498 152.476120,148.579910 
	C153.000305,138.029266 152.901443,127.470894 153.090118,116.917671 
	C153.124664,114.984993 154.328629,113.073227 154.992798,111.151802 
z"/>
<path fill="#032169" opacity="1.000000" stroke="none" 
	d="
M85.792473,34.077488 
	C67.615509,23.263481 49.438541,12.449474 31.130789,1.317734 
	C31.750000,1.000000 32.500000,1.000000 33.949867,1.258232 
	C36.122959,1.677551 37.596024,1.977079 39.069439,1.978823 
	C59.041359,2.002456 79.013321,1.984758 98.989090,2.447340 
	C98.995041,13.513325 99.117744,24.111792 98.893692,34.702923 
	C98.850845,36.728336 97.441444,38.724838 96.662506,40.734676 
	C96.662506,40.734676 96.443611,40.747398 96.355537,40.347244 
	C95.721588,39.815292 95.175705,39.683487 94.629829,39.551682 
	C94.629829,39.551682 94.668167,39.426868 94.540718,39.158836 
	C93.849991,38.686539 93.286713,38.482269 92.723434,38.277996 
	C92.723434,38.277996 92.825859,38.218941 92.694565,38.066196 
	C92.303192,37.666878 92.009705,37.617176 91.682808,37.764347 
	C91.682808,37.764347 91.402359,37.789906 91.375381,37.304314 
	C90.136002,36.311577 88.923615,35.804432 87.711220,35.297287 
	C87.711220,35.297287 87.802742,35.269817 87.659805,35.025452 
	C86.942078,34.546551 86.367271,34.312019 85.792473,34.077488 
z"/>
<path fill="#C8132E" opacity="1.000000" stroke="none" 
	d="
M2.468275,151.000000 
	C11.778983,144.954437 21.512392,138.833603 31.347069,132.880035 
	C48.313560,122.609093 65.343025,112.442177 83.011017,102.400772 
	C88.538857,103.090775 93.401741,103.611633 98.264633,104.132492 
	C87.602882,110.505157 76.938293,116.873062 66.280273,123.251968 
	C57.485607,128.515640 48.678013,133.758179 39.915440,139.074829 
	C33.729935,142.827866 27.610167,146.689240 21.230526,150.751129 
	C14.978848,151.000000 8.957696,151.000000 2.468275,151.000000 
z"/>
<path fill="#C8142F" opacity="1.000000" stroke="none" 
	d="
M155.992538,46.657501 
	C171.192856,37.450584 186.385559,28.231037 201.596268,19.041309 
	C211.265396,13.199571 220.961319,7.402120 230.822601,1.292402 
	C237.021149,1.000000 243.042297,1.000000 249.531723,1.000001 
	C245.430313,3.969678 240.903000,7.007266 236.279495,9.890643 
	C231.284882,13.005441 226.240860,16.046089 221.145386,18.992849 
	C213.967880,23.143688 206.666031,27.081659 199.528259,31.298388 
	C195.129257,33.897160 190.974716,36.906086 186.641464,39.620785 
	C181.687775,42.724178 176.657562,45.705441 171.193726,48.719872 
	C170.369415,48.687363 170.197601,48.884853 170.211380,49.292450 
	C170.211380,49.292450 170.161407,49.181587 169.733765,49.145012 
	C166.230637,49.069401 163.125931,49.265514 160.092468,48.888435 
	C158.655594,48.709824 157.354919,47.435444 155.992538,46.657501 
z"/>
<path fill="#C8142E" opacity="1.000000" stroke="none" 
	d="
M174.990738,102.120293 
	C178.005295,102.057938 181.019852,101.995583 184.725403,102.164490 
	C187.757370,103.054909 190.098358,103.714058 192.439331,104.373215 
	C192.439331,104.373215 192.491089,104.403801 192.483582,104.728889 
	C193.316376,105.376595 194.156662,105.699219 194.996948,106.021843 
	C202.873688,110.920540 210.671097,115.952972 218.646835,120.684799 
	C229.123322,126.900261 239.740265,132.878967 250.648407,138.979736 
	C251.000000,143.000000 251.000000,147.000000 250.500000,151.000000 
	C240.856888,145.331223 231.756210,139.592590 222.561020,134.009552 
	C207.631531,124.944839 192.640106,115.982086 177.253967,106.468475 
	C176.396469,105.760109 175.959808,105.559563 175.523163,105.359016 
	C175.523163,105.359016 175.636612,105.474182 175.601166,105.166718 
	C175.374054,103.946274 175.182388,103.033279 174.990738,102.120293 
z"/>
<path fill="#C8132E" opacity="1.000000" stroke="none" 
	d="
M1.500000,1.000000 
	C9.316534,5.616188 16.575718,10.326465 23.961847,14.828474 
	C38.213963,23.515451 52.533493,32.091923 66.835899,40.696201 
	C69.320038,42.190647 71.857422,43.596588 74.793701,45.553978 
	C75.637161,46.235840 76.057137,46.407124 76.477104,46.578407 
	C76.477104,46.578407 76.391342,46.525661 76.378578,46.858322 
	C75.262077,47.792332 74.132492,48.948425 73.059090,48.898426 
	C68.554741,48.688618 64.067207,48.117821 59.573521,47.679214 
	C59.573521,47.679214 59.456821,47.658260 59.467873,47.303650 
	C58.648556,46.641071 57.818195,46.333099 56.987831,46.025127 
	C50.720943,42.065323 44.539364,37.961422 38.162933,34.186657 
	C31.914223,30.487499 25.408649,27.224377 19.124218,23.582796 
	C13.250417,20.179153 7.518892,16.529978 1.362373,12.994434 
	C1.000000,9.000000 1.000000,5.000000 1.500000,1.000000 
z"/>
<path fill="#042269" opacity="1.000000" stroke="none" 
	d="
M48.118225,105.033707 
	C32.651073,114.377289 17.183918,123.720871 1.358382,133.032227 
	C1.000000,122.979103 1.000000,112.958214 1.262400,102.477776 
	C1.699786,102.022598 1.874770,102.026962 2.368237,102.288177 
	C4.492301,102.696892 6.297445,102.973923 8.103537,102.980240 
	C19.572889,103.020370 31.043478,102.921326 42.511051,103.069672 
	C44.728283,103.098358 46.933994,104.017181 49.145023,104.525391 
	C49.022327,104.662178 48.899635,104.798958 48.429363,104.854126 
	C48.081779,104.772507 47.920250,104.735672 47.920250,104.735672 
	C47.920250,104.735672 48.118225,105.033707 48.118225,105.033707 
z"/>
<path fill="#032169" opacity="1.000000" stroke="none" 
	d="
M251.000000,132.666672 
	C248.151917,131.466843 245.242157,130.037109 242.466660,128.382202 
	C231.802795,122.023796 221.181961,115.593216 210.178864,108.669174 
	C209.114532,107.858704 208.416412,107.568619 207.718307,107.278526 
	C207.718307,107.278526 207.815643,107.228210 207.688263,107.070404 
	C207.299927,106.663567 207.004166,106.611336 206.673569,106.755913 
	C206.673569,106.755913 206.407364,106.778366 206.380676,106.308746 
	C205.447159,105.529396 204.540329,105.219681 203.633499,104.909958 
	C203.633499,104.909958 203.151932,104.848145 203.429474,104.381447 
	C205.819153,103.609978 207.929855,103.053513 210.043655,103.041428 
	C223.369659,102.965233 236.696335,103.009903 250.015457,103.481766 
	C250.005615,109.079460 249.876648,114.214119 250.041809,119.339294 
	C250.167252,123.232445 250.666870,127.113541 251.000000,131.000000 
	C251.000000,131.444443 251.000000,131.888901 251.000000,132.666672 
z"/>
<path fill="#032169" opacity="1.000000" stroke="none" 
	d="
M1.000000,19.333332 
	C9.721830,24.323084 18.438940,29.653946 27.174984,34.953602 
	C27.831306,35.351753 28.622736,35.527195 29.749638,36.337650 
	C31.522881,37.488541 32.897846,38.107956 34.272812,38.727371 
	C34.272812,38.727371 34.176472,38.780590 34.307541,38.939896 
	C34.438606,39.099197 34.862492,39.329533 34.862492,39.329533 
	C34.862492,39.329533 35.341274,39.269638 35.341274,39.269638 
	C35.341274,39.269638 35.569553,39.260441 35.597149,39.723175 
	C36.838528,40.703320 38.052311,41.220722 39.266094,41.738125 
	C39.266094,41.738125 39.173782,41.782978 39.306992,41.949310 
	C39.440205,42.115646 39.873203,42.355179 39.873203,42.355179 
	C39.873203,42.355179 40.366173,42.311260 40.366173,42.311260 
	C40.366173,42.311260 40.537415,42.314667 40.568024,42.743862 
	C41.525036,43.498093 42.451447,43.823132 43.377853,44.148170 
	C43.377853,44.148170 43.745750,44.149002 43.814373,44.577393 
	C44.367210,45.093472 44.851429,45.181156 45.335644,45.268845 
	C45.335644,45.268841 45.573616,45.258118 45.593269,45.705551 
	C46.479954,46.484291 47.346989,46.815598 48.214024,47.146908 
	C48.390884,47.144672 48.567749,47.142437 48.499172,47.617126 
	C46.143375,48.395920 44.034431,48.947052 41.922428,48.959034 
	C28.607843,49.034554 15.292581,48.990383 1.984810,48.518585 
	C1.994547,42.920776 2.123479,37.786045 1.958288,32.660801 
	C1.832808,28.767616 1.333161,24.886492 1.000000,21.000000 
	C1.000000,20.555555 1.000000,20.111111 1.000000,19.333332 
z"/>
<path fill="#081E66" opacity="1.000000" stroke="none" 
	d="
M250.022797,103.014648 
	C236.696335,103.009903 223.369659,102.965233 210.043655,103.041428 
	C207.929855,103.053513 205.819153,103.609978 203.284424,104.186768 
	C201.281235,103.609985 199.700623,102.761185 198.120026,101.912384 
	C198.161072,101.614105 198.202118,101.315819 198.243164,101.017532 
	C215.516373,101.017532 232.789597,101.017532 250.531403,101.008766 
	C251.000000,101.444443 251.000000,101.888893 250.755676,102.669357 
	C250.511368,103.005371 250.022797,103.014648 250.022797,103.014648 
z"/>
<path fill="#081E66" opacity="1.000000" stroke="none" 
	d="
M1.977542,48.985748 
	C15.292581,48.990383 28.607843,49.034554 41.922428,48.959034 
	C44.034431,48.947052 46.143375,48.395920 48.670547,47.819668 
	C50.448063,48.304504 51.808762,49.063721 53.169464,49.822941 
	C53.080505,50.209663 52.991550,50.596382 52.902592,50.983105 
	C35.914124,50.983105 18.925655,50.983105 1.468593,50.991554 
	C1.000000,50.555553 1.000000,50.111111 1.244400,49.330757 
	C1.488800,48.994846 1.977542,48.985748 1.977542,48.985748 
z"/>
<path fill="#091F67" opacity="1.000000" stroke="none" 
	d="
M251.000000,50.666668 
	C233.797852,51.000000 216.595703,51.000000 199.393555,51.000000 
	C199.211655,50.683964 199.029770,50.367928 198.847870,50.051891 
	C200.195770,49.168739 201.543671,48.285587 203.527313,47.665474 
	C206.056274,48.285744 207.947647,48.940632 209.843018,48.952412 
	C223.239777,49.035675 236.637344,48.986927 250.276001,48.984489 
	C250.517365,48.988682 251.000000,49.000000 251.000000,49.000000 
	C251.000000,49.444447 251.000000,49.888889 251.000000,50.666668 
z"/>
<path fill="#081E67" opacity="1.000000" stroke="none" 
	d="
M96.920441,40.970016 
	C97.441444,38.724838 98.850845,36.728336 98.893692,34.702923 
	C99.117744,24.111792 98.995041,13.513325 98.994011,2.203172 
	C98.995117,1.488937 99.000000,1.000000 99.000000,1.000000 
	C99.444443,1.000000 99.888893,1.000000 100.666672,1.000000 
	C101.000000,14.821007 101.000000,28.642014 101.000000,43.274033 
	C99.504738,42.464634 98.341560,41.834995 96.920441,40.970016 
z"/>
<path fill="#0E2C71" opacity="1.000000" stroke="none" 
	d="
M98.531342,1.000000 
	C99.000000,1.000000 98.995117,1.488937 98.990196,1.733105 
	C79.013321,1.984758 59.041359,2.002456 39.069439,1.978823 
	C37.596024,1.977079 36.122959,1.677551 34.324867,1.258232 
	C55.354229,1.000000 76.708458,1.000000 98.531342,1.000000 
z"/>
<path fill="#0F2D71" opacity="1.000000" stroke="none" 
	d="
M2.049755,102.031319 
	C1.874770,102.026962 1.699786,102.022598 1.262400,102.009117 
	C1.000000,102.000000 1.000000,101.500000 1.000000,101.250000 
	C18.567522,101.000000 36.135044,101.000000 53.544556,101.000000 
	C53.759071,101.459969 53.897320,101.667603 53.864468,101.699608 
	C53.508343,102.046562 53.125347,102.365944 52.033237,102.527580 
	C34.894447,102.251984 18.472101,102.141655 2.049755,102.031319 
z"/>
<path fill="#112E72" opacity="1.000000" stroke="none" 
	d="
M251.000000,48.531342 
	C251.000000,49.000000 250.517365,48.988682 250.265884,48.518101 
	C250.010635,40.570267 250.142242,33.088566 249.896561,25.619270 
	C249.843124,23.995234 248.438110,22.415657 247.655609,20.815598 
	C248.549911,20.205410 249.444214,19.595222 250.669250,18.992519 
	C251.000000,28.687561 251.000000,38.375122 251.000000,48.531342 
z"/>
<path fill="#CB1C39" opacity="1.000000" stroke="none" 
	d="
M251.000000,90.531342 
	C250.824234,90.999863 250.648483,90.999725 250.225769,90.607391 
	C249.986084,89.809929 249.993347,89.404655 250.000610,88.999390 
	C250.001419,80.647034 250.002228,72.294678 250.252823,63.471870 
	C250.502594,63.001423 251.000000,63.000000 251.000000,63.000000 
	C251.000000,72.020897 251.000000,81.041786 251.000000,90.531342 
z"/>
<path fill="#0E2C71" opacity="1.000000" stroke="none" 
	d="
M250.015457,103.481766 
	C250.022797,103.014648 250.511368,103.005371 250.755676,103.002686 
	C251.000000,112.020897 251.000000,121.041786 251.000000,130.531342 
	C250.666870,127.113541 250.167252,123.232445 250.041809,119.339294 
	C249.876648,114.214119 250.005615,109.079460 250.015457,103.481766 
z"/>
<path fill="#0E2C71" opacity="1.000000" stroke="none" 
	d="
M1.984810,48.518585 
	C1.977542,48.985748 1.488800,48.994846 1.244400,48.997421 
	C1.000000,39.979103 1.000000,30.958208 1.000000,21.468657 
	C1.333161,24.886492 1.832808,28.767616 1.958288,32.660801 
	C2.123479,37.786045 1.994547,42.920776 1.984810,48.518585 
z"/>
<path fill="#CB1C39" opacity="1.000000" stroke="none" 
	d="
M2.023975,90.822632 
	C1.858365,90.881363 1.692755,90.940094 1.263572,90.999405 
	C1.000000,81.979103 1.000000,72.958206 1.248570,63.469437 
	C1.497140,63.001564 1.994264,63.005741 1.994264,63.005741 
	C1.995965,71.357880 1.997665,79.710022 2.000502,88.834709 
	C2.009084,90.012383 2.016530,90.417503 2.023975,90.822632 
z"/>
<path fill="#C8112F" opacity="1.000000" stroke="none" 
	d="
M251.000000,62.666748 
	C251.000000,63.000000 250.502594,63.001423 250.254166,63.003582 
	C250.005737,63.005741 249.999146,62.999142 249.990784,62.711193 
	C249.980377,62.045033 249.978302,61.666824 249.976227,61.288612 
	C250.142181,61.223927 250.308136,61.159245 250.737045,61.047279 
	C251.000000,61.444500 251.000000,61.888996 251.000000,62.666748 
z"/>
<path fill="#C8112F" opacity="1.000000" stroke="none" 
	d="
M1.997561,63.002445 
	C1.994264,63.005741 1.497140,63.001564 1.248570,63.000782 
	C1.000000,62.555500 1.000000,62.111004 1.000000,61.333252 
	C1.175505,61.031387 1.351010,61.062775 1.783344,61.474976 
	C2.030016,62.233994 2.019860,62.612190 2.009704,62.990387 
	C2.009704,62.990387 2.000857,62.999149 1.997561,63.002445 
z"/>
<path fill="#C3001A" opacity="1.000000" stroke="none" 
	d="
M249.515472,61.207035 
	C249.978302,61.666824 249.980377,62.045033 249.986328,62.706818 
	C215.576920,62.994011 181.163544,63.017773 146.750397,62.945000 
	C144.926163,62.941143 143.103683,62.121220 141.159439,61.299805 
	C171.401978,60.979706 201.765472,61.041550 232.128952,61.101799 
	C237.770874,61.112995 243.412796,61.117737 249.515472,61.207035 
z"/>
<path fill="#C40020" opacity="1.000000" stroke="none" 
	d="
M2.485811,90.897476 
	C2.016530,90.417503 2.009084,90.012383 2.000575,89.303322 
	C36.250053,88.999207 70.500648,88.977119 104.751007,89.054825 
	C106.746071,89.059349 108.739304,89.872101 110.848862,90.691772 
	C74.958771,91.040657 38.953209,91.006493 2.485811,90.897476 
z"/>
<path fill="#C40020" opacity="1.000000" stroke="none" 
	d="
M249.531891,88.999168 
	C249.993347,89.404655 249.986084,89.809929 249.977310,90.519211 
	C218.314575,90.880531 186.653336,90.937202 154.992111,90.995857 
	C150.659164,91.003883 146.326263,91.021736 141.531860,91.087418 
	C143.015091,90.426163 144.957489,89.097534 146.904816,89.090302 
	C180.957245,88.963737 215.010269,88.998924 249.531891,88.999168 
z"/>
<path fill="#C3001A" opacity="1.000000" stroke="none" 
	d="
M2.477344,62.994068 
	C2.019860,62.612190 2.030016,62.233994 2.032554,61.572014 
	C32.061470,61.226086 62.098000,61.162991 92.134537,61.102608 
	C98.109566,61.090595 104.084610,61.088978 110.525360,61.032799 
	C109.003281,61.655773 107.017509,62.908058 105.027374,62.915016 
	C71.000237,63.033997 36.972549,62.998924 2.477344,62.994068 
z"/>
<path fill="#C3001A" opacity="1.000000" stroke="none" 
	d="
M111.636581,149.814758 
	C111.214821,130.636444 111.139732,111.297852 110.995880,91.497375 
	C111.615875,92.168449 112.896957,93.297379 112.904716,94.434998 
	C113.025482,112.125847 112.993011,129.817871 112.933517,147.509399 
	C112.931114,148.225479 112.313988,148.939484 111.636581,149.814758 
z"/>
<path fill="#C3001A" opacity="1.000000" stroke="none" 
	d="
M111.358055,60.858208 
	C111.030350,41.642807 111.077675,22.294504 111.206619,2.485534 
	C111.858383,3.263828 112.917091,4.499694 112.924973,5.742220 
	C113.033699,22.896511 113.022743,40.051830 112.943275,57.206448 
	C112.937836,58.381245 112.154594,59.552441 111.358055,60.858208 
z"/>
<path fill="#C40020" opacity="1.000000" stroke="none" 
	d="
M140.448029,2.163384 
	C140.869522,21.354368 140.933182,40.692928 141.039368,60.495853 
	C140.390259,59.830063 139.104080,58.704140 139.095993,57.569111 
	C138.970947,40.020157 138.996445,22.469967 139.059967,4.920328 
	C139.063110,4.049307 139.731537,3.180694 140.448029,2.163384 
z"/>
<path fill="#C40020" opacity="1.000000" stroke="none" 
	d="
M140.749908,91.171951 
	C141.083237,110.400986 141.027039,129.731415 140.887985,149.523041 
	C140.203369,148.611725 139.087784,147.242874 139.078018,145.866180 
	C138.958252,128.979050 138.970276,112.090637 139.059387,95.203140 
	C139.066315,93.890953 139.907135,92.583168 140.749908,91.171951 
z"/>
<path fill="#C61028" opacity="1.000000" stroke="none" 
	d="
M59.832565,47.902107 
	C64.067207,48.117821 68.554741,48.688618 73.059090,48.898426 
	C74.132492,48.948425 75.262077,47.792332 76.421616,46.832214 
	C78.587379,47.656357 80.697334,48.839268 82.807289,50.022179 
	C75.082497,49.955845 67.156303,53.454014 59.832565,47.902107 
z"/>
<path fill="#081E66" opacity="1.000000" stroke="none" 
	d="
M34.087204,38.468857 
	C32.897846,38.107956 31.522881,37.488541 30.072832,36.521629 
	C31.299034,36.852871 32.600319,37.531609 34.087204,38.468857 
z"/>
<path fill="#081E67" opacity="1.000000" stroke="none" 
	d="
M87.881363,35.552742 
	C88.923615,35.804432 90.136002,36.311577 91.305542,37.182045 
	C90.192291,36.966312 89.121902,36.387253 87.881363,35.552742 
z"/>
<path fill="#081E66" opacity="1.000000" stroke="none" 
	d="
M39.093884,41.480782 
	C38.052311,41.220722 36.838528,40.703320 35.655357,39.821465 
	C36.764538,40.045830 37.843105,40.634636 39.093884,41.480782 
z"/>
<path fill="#C61028" opacity="1.000000" stroke="none" 
	d="
M57.162415,46.257011 
	C57.818195,46.333099 58.648556,46.641071 59.429161,47.258755 
	C58.698601,47.208607 58.017799,46.848751 57.162415,46.257011 
z"/>
<path fill="#081E66" opacity="1.000000" stroke="none" 
	d="
M43.189354,43.952087 
	C42.451447,43.823132 41.525036,43.498093 40.616226,42.814644 
	C41.422832,42.889488 42.211845,43.322746 43.189354,43.952087 
z"/>
<path fill="#081E66" opacity="1.000000" stroke="none" 
	d="
M47.970737,47.054089 
	C47.346989,46.815598 46.479954,46.484291 45.652576,45.808842 
	C46.370640,45.963558 47.049046,46.462414 47.970737,47.054089 
z"/>
<path fill="#081E67" opacity="1.000000" stroke="none" 
	d="
M92.873611,38.521347 
	C93.286713,38.482269 93.849991,38.686539 94.490387,39.200424 
	C94.052940,39.261593 93.538368,39.013145 92.873611,38.521347 
z"/>
<path fill="#081E67" opacity="1.000000" stroke="none" 
	d="
M85.955971,34.338554 
	C86.367271,34.312019 86.942078,34.546551 87.653397,35.072792 
	C87.233093,35.109543 86.676285,34.854580 85.955971,34.338554 
z"/>
<path fill="#081E67" opacity="1.000000" stroke="none" 
	d="
M94.790276,39.746330 
	C95.175705,39.683487 95.721588,39.815292 96.296219,40.255039 
	C95.866890,40.355652 95.408806,40.148319 94.790276,39.746330 
z"/>
<path fill="#081E66" opacity="1.000000" stroke="none" 
	d="
M45.203300,45.112072 
	C44.851429,45.181156 44.367210,45.093472 43.923676,44.725349 
	C44.333225,44.615036 44.702091,44.785168 45.203300,45.112072 
z"/>
<path fill="#081E66" opacity="1.000000" stroke="none" 
	d="
M35.191299,39.104717 
	C35.341274,39.269638 34.862492,39.329533 34.862492,39.329533 
	C34.862492,39.329533 34.438606,39.099197 34.321762,38.886734 
	C34.516228,38.660366 34.795033,38.748878 35.191299,39.104717 
z"/>
<path fill="#081E66" opacity="1.000000" stroke="none" 
	d="
M40.212547,42.139397 
	C40.366173,42.311260 39.873203,42.355179 39.873203,42.355179 
	C39.873203,42.355179 39.440205,42.115646 39.317963,41.899185 
	C39.516544,41.677372 39.804276,41.772308 40.212547,42.139397 
z"/>
<path fill="#081E67" opacity="1.000000" stroke="none" 
	d="
M91.829498,37.922291 
	C92.009705,37.617176 92.303192,37.666878 92.675285,38.122078 
	C92.486641,38.345325 92.216270,38.261833 91.829498,37.922291 
z"/>
<path fill="#C61028" opacity="1.000000" stroke="none" 
	d="
M76.254379,46.316250 
	C76.057137,46.407124 75.637161,46.235840 74.984131,45.798660 
	C75.177933,45.706539 75.604797,45.880318 76.254379,46.316250 
z"/>
<path fill="#00105C" opacity="1.000000" stroke="none" 
	d="
M154.786301,110.939224 
	C154.328629,113.073227 153.124664,114.984993 153.090118,116.917671 
	C152.901443,127.470894 153.000305,138.029266 152.476120,148.579910 
	C152.476120,135.926498 152.476120,123.273079 152.741943,110.298706 
	C153.531784,110.227386 154.055786,110.477020 154.786301,110.939224 
z"/>
<path fill="#C50B21" opacity="1.000000" stroke="none" 
	d="
M174.605225,102.053169 
	C175.182388,103.033279 175.374054,103.946274 175.532257,105.208954 
	C173.114716,104.257080 170.730652,102.955521 168.346588,101.653961 
	C168.423279,101.392975 168.499954,101.131981 168.576645,100.870995 
	C170.457672,101.242676 172.338699,101.614357 174.605225,102.053169 
z"/>
<path fill="#C50B21" opacity="1.000000" stroke="none" 
	d="
M192.189697,104.156845 
	C190.098358,103.714058 187.757370,103.054909 185.174622,102.128029 
	C187.268585,102.553696 189.604324,103.247086 192.189697,104.156845 
z"/>
<path fill="#081E66" opacity="1.000000" stroke="none" 
	d="
M203.816528,105.096771 
	C204.540329,105.219681 205.447159,105.529396 206.313675,106.193176 
	C205.515427,106.126030 204.757477,105.704811 203.816528,105.096771 
z"/>
<path fill="#C50B21" opacity="1.000000" stroke="none" 
	d="
M194.808731,105.791962 
	C194.156662,105.699219 193.316376,105.376595 192.511475,104.740120 
	C193.238083,104.804871 193.929291,105.183472 194.808731,105.791962 
z"/>
<path fill="#081E66" opacity="1.000000" stroke="none" 
	d="
M207.865692,107.518524 
	C208.416412,107.568619 209.114532,107.858704 209.908417,108.443436 
	C209.340500,108.411560 208.676788,108.085037 207.865692,107.518524 
z"/>
<path fill="#C50B21" opacity="1.000000" stroke="none" 
	d="
M175.749130,105.658447 
	C175.959808,105.559563 176.396469,105.760109 177.109924,106.204651 
	C176.916199,106.285057 176.445648,106.121468 175.749130,105.658447 
z"/>
<path fill="#081E66" opacity="1.000000" stroke="none" 
	d="
M206.821472,106.915321 
	C207.004166,106.611336 207.299927,106.663567 207.673401,107.123138 
	C207.482712,107.345207 207.210541,107.258888 206.821472,106.915321 
z"/>
<path fill="#01105C" opacity="1.000000" stroke="none" 
	d="
M2.368237,102.288177 
	C18.472101,102.141655 34.894447,102.251984 51.647453,102.609070 
	C51.204086,103.347847 50.430061,103.839882 49.400528,104.428650 
	C46.933994,104.017181 44.728283,103.098358 42.511051,103.069672 
	C31.043478,102.921326 19.572889,103.020370 8.103537,102.980240 
	C6.297445,102.973923 4.492301,102.696892 2.368237,102.288177 
z"/>
<path fill="#01105C" opacity="1.000000" stroke="none" 
	d="
M98.759422,110.059349 
	C99.363625,111.082375 99.936371,112.161972 99.942345,113.244690 
	C100.007065,124.972450 99.982765,136.700699 98.998734,148.439240 
	C98.998734,138.195572 99.074837,127.950836 98.933212,117.709114 
	C98.905571,115.709824 98.032745,113.722221 97.287155,111.455620 
	C97.504639,110.827133 97.984711,110.472252 98.759422,110.059349 
z"/>
<path fill="#C70F29" opacity="1.000000" stroke="none" 
	d="
M98.626770,104.042923 
	C93.401741,103.611633 88.538857,103.090775 83.347046,102.325500 
	C88.901344,101.580635 94.784561,101.080185 100.667770,100.579727 
	C101.129890,101.330872 101.592003,102.082008 102.054115,102.833153 
	C101.032379,103.206551 100.010651,103.579948 98.626770,104.042923 
z"/>
<path fill="#01105C" opacity="1.000000" stroke="none" 
	d="
M48.151978,105.037247 
	C48.118225,105.033707 47.920250,104.735672 47.920250,104.735672 
	C47.920250,104.735672 48.081779,104.772507 48.154976,104.880157 
	C48.228168,104.987801 48.185730,105.040779 48.151978,105.037247 
z"/>
<path fill="#042269" opacity="1.000000" stroke="none" 
	d="
M247.324036,20.895918 
	C248.438110,22.415657 249.843124,23.995234 249.896561,25.619270 
	C250.142242,33.088566 250.010635,40.570267 250.024536,48.513908 
	C236.637344,48.986927 223.239777,49.035675 209.843018,48.952412 
	C207.947647,48.940632 206.056274,48.285744 203.889359,47.551453 
	C203.615677,47.174393 203.685684,47.198391 203.980164,47.336472 
	C204.974411,46.812267 205.674194,46.149979 206.373962,45.487686 
	C206.373962,45.487686 206.461685,45.344650 206.826599,45.433716 
	C207.492004,45.170822 207.792480,44.818863 208.092957,44.466904 
	C208.092957,44.466900 208.280350,44.192616 208.777191,44.342926 
	C209.989227,43.825390 210.704407,43.157543 211.419586,42.489700 
	C211.419586,42.489700 211.494354,42.387562 211.872482,42.481613 
	C212.839584,42.067978 213.428558,41.560291 214.017532,41.052605 
	C225.009186,34.360485 236.000824,27.668360 247.324036,20.895918 
z"/>
<path fill="#01105D" opacity="1.000000" stroke="none" 
	d="
M153.392487,42.021507 
	C152.751999,41.169987 152.090103,40.277061 152.084900,39.380333 
	C152.015808,27.452763 152.038773,15.524663 153.001831,3.584062 
	C153.001831,13.339144 152.903030,23.095917 153.069901,32.848145 
	C153.112732,35.350658 153.993790,37.838837 154.744324,40.621384 
	C154.558044,41.265556 154.117188,41.621944 153.392487,42.021507 
z"/>
<path fill="#C70F29" opacity="1.000000" stroke="none" 
	d="
M155.630768,46.765121 
	C157.354919,47.435444 158.655594,48.709824 160.092468,48.888435 
	C163.125931,49.265514 166.230637,49.069401 169.787476,49.173519 
	C167.326202,49.820503 164.405838,50.657440 161.435059,50.916740 
	C158.076401,51.209896 154.672470,50.984322 150.788162,49.846725 
	C152.281769,48.855396 153.775375,47.864067 155.630768,46.765121 
z"/>
<path fill="#091F67" opacity="1.000000" stroke="none" 
	d="
M206.120499,45.585056 
	C205.674194,46.149979 204.974411,46.812267 203.947754,47.323555 
	C204.369583,46.675846 205.118301,46.179134 206.120499,45.585056 
z"/>
<path fill="#091F67" opacity="1.000000" stroke="none" 
	d="
M211.158142,42.582893 
	C210.704407,43.157543 209.989227,43.825390 208.943192,44.348530 
	C209.373779,43.694576 210.135239,43.185333 211.158142,42.582893 
z"/>
<path fill="#091F67" opacity="1.000000" stroke="none" 
	d="
M213.735260,41.065994 
	C213.428558,41.560291 212.839584,42.067978 211.935165,42.472832 
	C212.230804,41.939796 212.841904,41.509594 213.735260,41.065994 
z"/>
<path fill="#091F67" opacity="1.000000" stroke="none" 
	d="
M207.881439,44.520004 
	C207.792480,44.818863 207.492004,45.170822 206.910309,45.428165 
	C206.976059,45.080067 207.322998,44.826584 207.881439,44.520004 
z"/>
<path fill="#C70F29" opacity="1.000000" stroke="none" 
	d="
M170.433197,49.247963 
	C170.197601,48.884853 170.369415,48.687363 170.854233,48.795162 
	C170.981644,48.890350 170.655014,49.203480 170.433197,49.247963 
z"/>
</svg>