<?xml version="1.0" encoding="UTF-8"?>
<svg id="Layer_1" data-name="Layer 1" xmlns="http://www.w3.org/2000/svg" viewBox="0 0 448.22 461.4">
  <path d="M59.44,121.3l6.42,7.88c90.58,10.48,129.97,17.27,140.45,21.98l10.78-4.81c-23.36-8.66-80.39-16.28-157.64-25.05Z"/>
  <path d="M157.25,235.34c-42.21-33.33-79.68-67.81-107.64-104.58,5.3,1.87,11.03,2.74,17.02,3.01,20.44,19.77,11.39,20.75,90.48,87.95-.43,4.77-.33,9.28.13,13.61Z"/>
  <path d="M266.66,181.34l-7.74,7.6-1.61-2.97-60.52,60.13c10.31,10.41,23.57,16.72,45.27,11.24l3.74-2.79,5.82-1.62c26.2-21.73,28.28-51.36,15.04-71.59Z"/>
  <path d="M186.13,242.18l7.74-7.6,1.61,2.97,60.52-60.13c-10.31-10.41-23.57-16.72-45.27-11.24l-3.74,2.79-5.82,1.62c-26.2,21.73-28.28,51.36-15.04,71.59Z"/>
  <path d="M167.43,217.3c-3.81-39.39,14.49-52.99,49.16-59.29l-5.1-3.39c-35.16,3.52-53.17,26.11-49.86,65.73l5.8-3.05Z"/>
  <path d="M392.87,301.52l-6.42-7.88c-90.58-10.48-129.97-17.27-140.45-21.98l-10.78,4.81c23.36,8.66,80.39,16.28,157.64,25.05Z"/>
  <path d="M295.06,187.48c42.21,33.33,79.68,67.81,107.64,104.58-5.3-1.87-11.03-2.74-17.02-3.01-20.44-19.77-11.39-20.75-90.48-87.95.43-4.77.33-9.28-.13-13.61Z"/>
  <path d="M284.88,205.52c3.81,39.39-14.49,52.99-49.16,59.29l5.1,3.39c35.16-3.52,53.17-26.11,49.86-65.73l-5.8,3.05Z"/>
</svg>